<svg width="1024" height="1024" viewBox="0 0 1024 1024" fill="none" xmlns="http://www.w3.org/2000/svg">
  <defs>
    <linearGradient id="bg" x1="140" y1="120" x2="896" y2="924" gradientUnits="userSpaceOnUse">
      <stop stop-color="#17385B"/>
      <stop offset="0.45" stop-color="#0E2239"/>
      <stop offset="1" stop-color="#07111D"/>
    </linearGradient>
    <radialGradient id="glow" cx="0" cy="0" r="1" gradientUnits="userSpaceOnUse" gradientTransform="translate(742 270) rotate(134.776) scale(318.535)">
      <stop stop-color="#57D3FF" stop-opacity="0.32"/>
      <stop offset="1" stop-color="#57D3FF" stop-opacity="0"/>
    </radialGradient>
    <linearGradient id="art" x1="240" y1="260" x2="525" y2="660" gradientUnits="userSpaceOnUse">
      <stop stop-color="#F7B267"/>
      <stop offset="0.42" stop-color="#F07281"/>
      <stop offset="1" stop-color="#345DFF"/>
    </linearGradient>
    <linearGradient id="panel" x1="578" y1="246" x2="858" y2="560" gradientUnits="userSpaceOnUse">
      <stop stop-color="#173A5F"/>
      <stop offset="1" stop-color="#0A182A"/>
    </linearGradient>
    <linearGradient id="accent" x1="394" y1="420" x2="760" y2="420" gradientUnits="userSpaceOnUse">
      <stop stop-color="#89E0FF"/>
      <stop offset="1" stop-color="#49B6FF"/>
    </linearGradient>
    <filter id="shadow" x="110" y="166" width="778" height="676" filterUnits="userSpaceOnUse" color-interpolation-filters="sRGB">
      <feFlood flood-opacity="0" result="BackgroundImageFix"/>
      <feColorMatrix in="SourceAlpha" type="matrix" values="0 0 0 0 0 0 0 0 0 0 0 0 0 0 0 0 0 0 127 0" result="hardAlpha"/>
      <feOffset dy="24"/>
      <feGaussianBlur stdDeviation="28"/>
      <feComposite in2="hardAlpha" operator="out"/>
      <feColorMatrix type="matrix" values="0 0 0 0 0.0156863 0 0 0 0 0.0588235 0 0 0 0 0.117647 0 0 0 0.44 0"/>
      <feBlend mode="normal" in2="BackgroundImageFix" result="effect1_dropShadow_0_1"/>
      <feBlend mode="normal" in="SourceGraphic" in2="effect1_dropShadow_0_1" result="shape"/>
    </filter>
  </defs>

  <rect x="56" y="56" width="912" height="912" rx="212" fill="url(#bg)"/>
  <rect x="56" y="56" width="912" height="912" rx="212" stroke="#8FD5FF" stroke-opacity="0.14" stroke-width="2"/>
  <circle cx="742" cy="270" r="292" fill="url(#glow)"/>

  <path d="M196 254V186H264" stroke="#6FD7FF" stroke-width="28" stroke-linecap="round" stroke-linejoin="round"/>
  <path d="M828 770V838H760" stroke="#6FD7FF" stroke-width="28" stroke-linecap="round" stroke-linejoin="round"/>

  <g filter="url(#shadow)">
    <g transform="rotate(-11 375 491)">
      <rect x="188" y="226" width="374" height="530" rx="46" fill="#F4F7FB"/>
      <rect x="212" y="250" width="326" height="482" rx="30" fill="url(#art)"/>
      <circle cx="468" cy="342" r="54" fill="#FFE6A8" fill-opacity="0.9"/>
      <path d="M212 548C260 500 312 464 350 452C388 440 430 446 468 472C500 494 518 522 538 566V732H212V548Z" fill="#14345A" fill-opacity="0.74"/>
      <path d="M212 604C260 560 320 522 374 522C424 522 486 560 538 640V732H212V604Z" fill="#09203A"/>
      <rect x="246" y="280" width="258" height="20" rx="10" fill="white" fill-opacity="0.26"/>
    </g>

    <rect x="572" y="250" width="246" height="154" rx="32" fill="url(#panel)" stroke="#7ED8FF" stroke-opacity="0.24" stroke-width="2"/>
    <rect x="610" y="460" width="192" height="122" rx="26" fill="#102842" stroke="#7ED8FF" stroke-opacity="0.16" stroke-width="2"/>
    <rect x="540" y="616" width="228" height="142" rx="28" fill="#0B1D31" stroke="#7ED8FF" stroke-opacity="0.14" stroke-width="2"/>

    <rect x="608" y="282" width="174" height="16" rx="8" fill="#93E7FF" fill-opacity="0.72"/>
    <rect x="608" y="318" width="118" height="16" rx="8" fill="#93E7FF" fill-opacity="0.42"/>
    <rect x="642" y="496" width="128" height="14" rx="7" fill="#93E7FF" fill-opacity="0.46"/>
    <rect x="642" y="528" width="82" height="14" rx="7" fill="#93E7FF" fill-opacity="0.28"/>
    <rect x="572" y="652" width="160" height="16" rx="8" fill="#93E7FF" fill-opacity="0.34"/>
    <rect x="572" y="690" width="110" height="16" rx="8" fill="#93E7FF" fill-opacity="0.2"/>

    <path d="M462 505H675" stroke="url(#accent)" stroke-width="26" stroke-linecap="round"/>
    <path d="M648 444L737 505L648 566" stroke="#89E0FF" stroke-width="26" stroke-linecap="round" stroke-linejoin="round"/>
  </g>
</svg>
